<?xml version="1.0" standalone="no"?>
<!DOCTYPE svg PUBLIC "-//W3C//DTD SVG 20010904//EN"
 "http://www.w3.org/TR/2001/REC-SVG-20010904/DTD/svg10.dtd">
<svg version="1.0" xmlns="http://www.w3.org/2000/svg"
 width="800.000000pt" height="800.000000pt" viewBox="0 0 800.000000 800.000000"
 preserveAspectRatio="xMidYMid meet">
<metadata>
Created by potrace 1.14, written by Peter Selinger 2001-2017
</metadata>
<g transform="translate(0.000000,800.000000) scale(0.100000,-0.100000)"
fill="#000000" stroke="none">
<path d="M0 6675 l0 -1324 32 4 33 5 -32 -10 c-32 -10 -33 -12 -33 -69 l0 -59
128 -4 c70 -2 132 -1 137 3 6 4 68 9 138 11 117 5 130 3 140 -14 7 -10 19 -18
27 -18 13 0 13 -1 0 -10 -11 -7 -6 -10 21 -10 27 0 45 8 68 29 41 38 103 52
223 50 63 -1 104 3 111 10 16 16 47 14 47 -4 0 -8 6 -15 14 -15 15 0 29 -29
24 -48 -2 -5 10 -25 27 -43 16 -19 30 -38 30 -44 0 -6 38 -9 101 -7 82 3 102
1 107 -11 6 -16 37 -23 165 -36 46 -4 87 -13 90 -18 11 -16 356 -22 455 -8 43
6 47 5 47 -14 0 -25 31 -29 50 -6 7 8 17 15 23 15 6 0 18 7 28 16 11 10 23 13
31 8 7 -5 21 -7 30 -6 10 2 26 -2 37 -7 24 -13 17 -51 -9 -51 -25 0 -50 -10
-50 -21 0 -16 27 -10 76 16 56 30 89 31 129 5 27 -18 41 -19 202 -13 l173 6 0
-31 c0 -25 6 -35 33 -48 17 -9 38 -25 45 -35 7 -11 20 -19 28 -19 8 0 14 -6
14 -14 0 -23 30 -28 143 -20 77 5 107 3 107 -5 0 -7 32 -11 100 -11 88 0 102
-2 117 -20 10 -11 24 -20 33 -20 24 0 109 35 131 53 10 9 19 13 19 9 0 -4 6 0
13 8 13 16 41 35 67 47 8 3 35 20 60 37 25 17 48 30 53 28 4 -1 7 3 7 8 0 6 7
10 15 10 8 0 15 5 15 11 0 5 -5 7 -12 3 -7 -4 -8 -3 -4 5 6 8 12 9 20 2 9 -7
16 -7 23 0 25 25 31 -5 31 -154 -1 -85 2 -159 6 -165 4 -7 9 -21 11 -32 2 -11
11 -28 21 -37 15 -16 21 -16 83 0 36 10 71 24 77 33 21 27 174 84 229 84 27 1
68 8 90 16 22 9 54 18 70 21 17 3 50 19 74 35 24 16 62 33 85 37 22 5 61 13
86 19 25 6 70 16 100 22 30 7 62 14 71 16 41 11 21 -82 -31 -146 -18 -22 -19
-29 -8 -57 7 -18 18 -33 25 -33 7 0 13 -6 14 -12 2 -37 147 -109 157 -79 2 6
12 11 22 11 10 0 22 5 25 10 14 23 80 41 128 35 39 -6 47 -4 47 9 0 9 8 16 19
16 29 0 51 11 51 24 0 11 16 16 63 19 9 1 17 9 17 18 0 9 10 36 23 60 17 32
33 47 57 55 54 18 78 70 48 104 -7 8 -1 4 15 -10 23 -20 41 -25 130 -31 56 -4
128 -13 160 -20 56 -12 58 -11 82 15 22 24 34 28 90 30 25 1 59 25 68 48 4 11
22 20 47 24 29 5 40 11 36 20 -3 8 1 14 8 14 7 0 19 7 26 15 7 8 28 17 49 21
20 4 43 12 51 18 32 25 121 67 183 86 37 11 69 25 72 30 3 6 15 10 26 10 10 0
19 4 19 10 0 12 113 70 137 70 10 1 36 9 58 20 22 11 48 19 58 20 10 0 29 7
42 16 38 25 55 12 55 -42 0 -43 25 -104 42 -104 4 0 8 -6 8 -13 0 -14 47 -39
118 -64 37 -12 65 -13 171 -5 69 6 146 17 171 26 25 8 73 18 108 22 34 4 65
11 68 15 3 5 18 9 34 9 16 0 33 7 38 16 10 17 20 22 167 74 11 4 37 15 58 24
21 9 44 16 52 16 13 0 15 171 15 1355 l0 1355 -4000 0 -4000 0 0 -1325z m6050
181 c0 -2 -3 -11 -6 -20 -9 -23 -24 -20 -24 4 0 11 7 20 15 20 8 0 15 -2 15
-4z m-260 -361 c0 -8 -4 -15 -10 -15 -5 0 -10 7 -10 15 0 8 5 15 10 15 6 0 10
-7 10 -15z m-150 -225 c0 -5 -4 -10 -10 -10 -5 0 -10 5 -10 10 0 6 5 10 10 10
6 0 10 -4 10 -10z m-5320 -800 c0 -5 -5 -10 -11 -10 -5 0 -7 5 -4 10 3 6 8 10
11 10 2 0 4 -4 4 -10z m1117 -236 c-3 -3 -12 -4 -19 -1 -8 3 -5 6 6 6 11 1 17
-2 13 -5z m416 -1 c-7 -2 -21 -2 -30 0 -10 3 -4 5 12 5 17 0 24 -2 18 -5z
m-116 -9 c-3 -3 -12 -4 -19 -1 -8 3 -5 6 6 6 11 1 17 -2 13 -5z m176 -1 c-7
-2 -19 -2 -25 0 -7 3 -2 5 12 5 14 0 19 -2 13 -5z m-400 -10 c-13 -2 -33 -2
-45 0 -13 2 -3 4 22 4 25 0 35 -2 23 -4z m130 -40 c-7 -2 -21 -2 -30 0 -10 3
-4 5 12 5 17 0 24 -2 18 -5z m594 -59 c-3 -3 -12 -4 -19 -1 -8 3 -5 6 6 6 11
1 17 -2 13 -5z m356 -11 c-34 -2 -93 -2 -130 0 -37 2 -9 3 62 3 72 0 102 -1
68 -3z m200 -26 c3 -8 -1 -14 -8 -14 -7 0 -11 6 -8 14 3 7 6 13 8 13 2 0 5 -6
8 -13z m2974 -63 c-3 -3 -12 -4 -19 -1 -8 3 -5 6 6 6 11 1 17 -2 13 -5z m136
-21 c-13 -2 -33 -2 -45 0 -13 2 -3 4 22 4 25 0 35 -2 23 -4z m-2973 -43 c0 -5
-8 -10 -17 -10 -15 0 -16 2 -3 10 19 12 20 12 20 0z m745 -19 c-3 -6 -14 -11
-23 -11 -15 1 -15 2 2 15 21 16 32 13 21 -4z m-612 -48 c-24 -2 -62 -2 -85 0
-24 2 -5 4 42 4 47 0 66 -2 43 -4z m2434 1 c-3 -3 -12 -4 -19 -1 -8 3 -5 6 6
6 11 1 17 -2 13 -5z m-17 -18 c0 -2 -11 -6 -25 -8 -13 -3 -22 -1 -19 3 5 9 44
13 44 5z m-1960 -26 c-8 -5 -19 -10 -25 -10 -5 0 -3 5 5 10 8 5 20 10 25 10 6
0 3 -5 -5 -10z m1418 -10 c-7 -10 -14 -17 -17 -15 -4 4 18 35 25 35 2 0 -1 -9
-8 -20z m-1495 -17 c-7 -2 -21 -2 -30 0 -10 3 -4 5 12 5 17 0 24 -2 18 -5z
m1112 -13 c-3 -5 -11 -10 -16 -10 -6 0 -7 5 -4 10 3 6 11 10 16 10 6 0 7 -4 4
-10z m-295 -70 c0 -5 -2 -10 -4 -10 -2 0 -12 -3 -22 -7 -16 -6 -17 -5 -4 10
17 19 30 22 30 7z m656 -22 l19 -23 -25 20 c-14 11 -27 21 -29 22 -2 2 0 3 6
3 5 0 18 -10 29 -22z"/>
<path d="M7865 5170 c-4 -6 -11 -8 -16 -5 -14 9 -99 -6 -99 -17 0 -5 4 -7 9
-4 4 3 6 -6 3 -19 -2 -14 -12 -25 -21 -26 -9 0 9 -10 39 -22 30 -11 57 -24 60
-27 3 -3 16 -11 30 -17 41 -19 -101 -16 -160 3 -26 9 -59 14 -72 12 -19 -2
-23 -10 -26 -44 -3 -41 -3 -41 42 -54 45 -12 87 -10 176 9 25 6 67 10 93 11
45 0 49 -2 62 -32 13 -31 14 -27 15 75 0 92 -2 107 -16 107 -31 0 -83 31 -77
46 6 16 -32 20 -42 4z"/>
<path d="M7130 5040 c-38 -6 -40 -7 -13 -8 17 -1 35 -6 38 -12 10 -16 45 -12
45 6 0 9 5 12 12 8 7 -4 8 -3 4 4 -8 13 -16 13 -86 2z"/>
<path d="M645 4992 c-8 -26 -55 -42 -100 -35 -23 4 -35 2 -35 -6 0 -6 7 -11
16 -11 8 0 12 -5 8 -11 -6 -10 -30 -7 -68 7 -12 5 -15 -4 -18 -48 -3 -56 -16
-68 -33 -30 -5 12 -15 22 -21 22 -13 0 -107 -40 -114 -49 -3 -3 -21 -17 -40
-30 -19 -13 -45 -37 -58 -52 -17 -21 -33 -29 -55 -30 -70 -1 15 -19 148 -30
104 -10 150 -10 199 -1 78 15 186 16 186 2 0 -5 19 -10 43 -10 45 0 87 22 87
46 0 19 57 19 76 -1 9 -8 25 -15 37 -15 12 0 37 -9 55 -20 42 -26 56 -26 42 0
-10 18 -8 20 19 20 16 0 32 -4 35 -9 3 -4 34 -14 68 -20 35 -6 90 -18 123 -26
143 -34 209 -48 263 -55 49 -7 223 -47 347 -80 87 -24 155 -37 159 -32 7 6 98
-18 111 -29 5 -5 24 -9 42 -9 19 0 49 -7 68 -14 19 -8 35 -11 35 -5 0 5 -12
15 -27 21 -16 7 -35 17 -43 24 -8 7 -28 14 -45 17 -29 4 -29 4 5 5 19 1 71 -9
115 -23 44 -14 88 -25 98 -25 10 0 36 -9 58 -21 23 -11 43 -18 46 -15 3 3 18
-3 32 -13 14 -10 41 -22 59 -26 25 -5 32 -3 32 9 0 9 -1 16 -2 16 -2 0 -21 7
-43 16 -40 15 -40 15 40 9 44 -4 84 -10 90 -15 17 -14 95 -24 95 -12 0 11 -87
42 -117 42 -11 0 -23 4 -29 9 -5 5 -25 11 -44 14 -33 4 -33 4 8 5 23 1 42 6
42 11 0 7 -48 20 -100 26 -9 1 -25 7 -37 14 -30 16 -35 14 -23 -9 9 -17 8 -20
-12 -20 -13 1 -48 9 -78 20 -30 11 -62 20 -70 20 -8 0 -28 7 -44 15 -16 8 -47
18 -69 22 -23 3 -52 12 -66 20 -14 7 -34 13 -43 13 -10 0 -18 7 -18 15 0 8 -5
15 -11 15 -5 0 -30 9 -55 21 -32 14 -55 18 -76 14 -19 -5 -28 -3 -24 3 3 5 -1
13 -10 16 -22 8 -26 8 -19 -4 3 -5 1 -10 -4 -10 -6 0 -11 7 -11 15 0 16 -18
21 -102 29 -68 5 -83 12 -68 31 17 20 -15 28 -101 26 -42 -2 -79 2 -83 7 -3 5
-22 13 -41 16 -44 9 -45 22 -2 35 27 9 21 10 -43 9 -91 -1 -159 2 -145 7 6 2
29 9 53 15 70 18 48 27 -55 23 -90 -4 -96 -3 -79 11 11 9 28 16 38 16 10 0 18
5 18 10 0 6 -16 8 -40 5 -22 -3 -58 -7 -79 -10 -23 -3 -41 -1 -43 5 -2 6 -30
12 -63 14 -47 2 -65 -1 -85 -16 -19 -15 -34 -18 -67 -13 -26 4 -62 0 -97 -10
-30 -9 -72 -15 -93 -13 l-38 3 65 32 c36 18 57 33 48 33 -21 0 -24 20 -6 38 9
9 2 12 -34 12 -26 0 -53 3 -61 6 -10 3 -18 -2 -22 -14z"/>
<path d="M1980 5000 c0 -5 7 -10 16 -10 8 0 12 5 9 10 -3 6 -10 10 -16 10 -5
0 -9 -4 -9 -10z"/>
<path d="M7316 5003 c-4 -4 -25 -6 -47 -4 -39 2 -40 2 -29 -18 6 -12 15 -19
21 -16 5 4 9 4 9 0 0 -3 -10 -9 -22 -14 -19 -7 -15 -11 38 -37 l59 -29 -42 -3
c-23 -2 -64 4 -90 13 -32 11 -62 14 -93 10 -37 -5 -51 -2 -71 13 -20 16 -36
19 -84 16 -32 -2 -62 -9 -65 -14 -4 -7 -24 -7 -60 0 -29 5 -63 10 -76 10 -27
0 -33 -20 -6 -20 9 0 26 -8 37 -16 18 -15 13 -16 -79 -10 -85 5 -96 4 -86 -9
6 -8 30 -18 53 -24 l42 -9 -45 -2 c-25 -2 -76 -2 -115 -2 -63 1 -67 0 -37 -10
17 -6 32 -14 32 -19 0 -4 -15 -11 -32 -14 -18 -4 -39 -12 -46 -17 -7 -6 -42
-9 -83 -6 -48 4 -80 1 -96 -7 -22 -12 -23 -14 -8 -23 27 -15 3 -24 -84 -31
-65 -5 -76 -9 -73 -23 2 -11 -3 -18 -13 -18 -9 0 -13 5 -10 10 3 6 -1 10 -10
10 -8 0 -18 -7 -21 -15 -4 -10 -14 -13 -29 -9 -13 3 -38 -1 -57 -9 -18 -9 -43
-18 -55 -22 -13 -3 -23 -13 -23 -21 0 -8 -9 -14 -21 -14 -12 0 -35 -6 -52 -13
-53 -22 -130 -48 -167 -56 -19 -4 -44 -12 -55 -18 -11 -6 -42 -14 -69 -18 -47
-7 -48 -7 -37 14 13 23 9 26 -17 12 -9 -5 -45 -15 -80 -22 -66 -13 -71 -25
-12 -32 33 -4 33 -4 -7 -5 -24 -1 -43 -6 -43 -12 0 -5 -10 -10 -23 -10 -35 0
-118 -31 -111 -41 6 -10 72 -2 89 12 6 4 46 10 90 14 80 6 80 6 40 -9 -22 -9
-41 -16 -42 -16 -2 0 -3 -6 -3 -14 0 -16 52 -15 72 2 12 10 45 23 123 50 84
30 225 63 246 59 23 -4 23 -4 -3 -6 -15 0 -30 -6 -33 -11 -4 -6 -22 -17 -41
-25 -19 -8 -34 -18 -34 -24 0 -6 15 -4 35 5 19 7 45 14 57 14 13 0 47 9 75 19
29 11 75 19 104 19 28 1 79 10 112 21 72 23 274 71 300 71 9 0 17 4 17 9 0 4
28 11 63 14 34 2 94 12 132 21 39 9 137 32 219 51 81 19 150 35 152 35 10 0 3
-29 -8 -33 -7 -3 -3 -6 9 -6 12 -1 28 6 36 14 8 8 34 19 57 24 24 5 46 14 49
19 15 24 71 17 71 -8 0 -13 10 -24 26 -30 35 -14 104 -13 104 1 0 8 25 9 88 4
135 -13 319 -10 402 5 55 11 67 15 45 18 -19 2 -46 20 -72 47 -37 37 -172 115
-199 115 -5 0 -15 -15 -23 -32 -7 -19 -15 -27 -18 -20 -2 6 -8 10 -13 7 -4 -2
-5 19 -3 48 l4 53 -43 -3 c-24 -2 -37 0 -30 3 6 3 10 10 6 15 -8 13 -54 11
-54 -3 0 -9 -3 -9 -12 0 -7 7 -19 12 -29 12 -9 0 -25 11 -35 25 -20 26 -26 29
-38 18z"/>
<path d="M6920 4990 c0 -5 12 -12 28 -16 15 -3 34 -8 42 -11 31 -12 80 -14 80
-3 0 6 10 15 23 20 21 8 21 9 -5 9 -16 1 -31 -6 -37 -16 -8 -15 -12 -16 -22
-5 -11 10 -10 12 2 13 9 0 6 4 -6 9 -28 12 -105 12 -105 0z"/>
<path d="M1730 4736 c0 -2 7 -6 15 -10 8 -3 15 -1 15 4 0 6 -7 10 -15 10 -8 0
-15 -2 -15 -4z"/>
<path d="M6240 4730 c0 -5 7 -7 15 -4 8 4 15 8 15 10 0 2 -7 4 -15 4 -8 0 -15
-4 -15 -10z"/>
<path d="M1020 4666 c0 -2 7 -7 16 -10 8 -3 12 -2 9 4 -6 10 -25 14 -25 6z"/>
<path d="M1100 4621 c0 -12 28 -22 35 -12 3 5 -2 12 -11 15 -21 8 -24 8 -24
-3z"/>
<path d="M6860 4620 c0 -5 6 -10 14 -10 8 0 18 5 21 10 3 6 -3 10 -14 10 -12
0 -21 -4 -21 -10z"/>
<path d="M5890 4443 c-8 -3 -35 -14 -59 -25 -24 -11 -53 -17 -64 -14 -11 3
-33 -2 -48 -10 -15 -7 -41 -14 -56 -14 -15 0 -50 -12 -78 -26 -36 -18 -41 -23
-20 -18 67 15 124 26 198 37 65 9 77 14 77 29 0 14 5 18 19 13 11 -3 28 3 42
14 23 20 19 25 -11 14z"/>
<path d="M2106 4425 c4 -10 14 -13 30 -9 19 5 24 2 24 -14 0 -17 9 -20 72 -27
40 -3 79 -10 88 -15 8 -4 31 -10 50 -13 19 -3 49 -8 65 -11 23 -5 18 -1 -19
19 -28 14 -63 25 -78 25 -16 0 -42 7 -57 14 -15 8 -37 13 -48 10 -11 -3 -41 4
-66 15 -54 25 -68 26 -61 6z"/>
<path d="M2335 4412 c22 -11 42 -15 44 -10 5 13 0 16 -44 22 l-40 6 40 -18z"/>
<path d="M5643 4420 c-13 -5 -23 -14 -23 -19 0 -8 66 13 79 25 8 7 -34 3 -56
-6z"/>
<path d="M2630 4380 c0 -7 24 -20 36 -20 13 0 1 19 -16 23 -11 3 -20 2 -20 -3z"/>
<path d="M5348 4383 c-10 -2 -18 -9 -18 -14 0 -14 16 -11 30 6 7 8 11 14 9 14
-2 -1 -12 -3 -21 -6z"/>
<path d="M2708 4358 c5 -5 16 -8 23 -6 8 3 3 7 -10 11 -17 4 -21 3 -13 -5z"/>
<path d="M5195 4340 c-29 -11 -41 -19 -29 -19 22 -1 94 25 94 34 0 7 -8 5 -65
-15z"/>
<path d="M2775 4335 c17 -8 41 -14 55 -14 22 0 21 2 -10 14 -48 19 -86 18 -45
0z"/>
<path d="M990 4270 c-41 -5 -90 -13 -109 -19 -19 -6 -37 -9 -40 -6 -16 9 -241
-62 -241 -76 0 -5 -9 -9 -20 -9 -11 0 -20 -4 -20 -10 0 -5 -7 -10 -15 -10 -8
0 -35 -21 -60 -46 -38 -38 -46 -51 -43 -77 2 -23 7 -31 18 -28 8 2 24 4 35 5
11 1 26 5 33 10 22 14 26 -2 12 -46 -18 -57 -36 -76 -76 -84 -36 -7 -44 -21
-18 -31 30 -11 -36 -41 -83 -37 -24 2 -43 0 -43 -5 0 -13 25 -20 52 -14 16 3
19 2 10 -5 -10 -7 -5 -14 22 -30 20 -12 36 -25 36 -29 -1 -10 -66 -43 -85 -43
-8 0 -15 -4 -15 -10 0 -12 23 -13 34 -2 4 4 11 7 14 7 4 1 29 11 56 23 34 15
52 19 56 12 5 -8 18 -5 41 7 19 10 44 17 57 15 24 -4 29 -17 11 -28 -6 -3 -9
-17 -7 -29 4 -17 1 -22 -10 -18 -8 3 -18 0 -23 -8 -13 -21 -11 -29 7 -29 11 0
14 -5 10 -16 -3 -9 -6 -17 -6 -20 0 -2 -6 -1 -13 2 -8 3 -20 -2 -27 -11 -10
-12 -10 -15 4 -15 10 0 26 5 37 10 16 9 19 7 19 -8 0 -22 -23 -46 -33 -35 -4
3 -7 2 -7 -4 0 -11 68 -23 130 -23 48 0 113 -27 104 -42 -6 -9 -9 -9 -12 0 -2
7 -18 12 -35 11 -18 0 -26 -3 -19 -6 20 -8 14 -23 -13 -33 -26 -10 -34 -30
-12 -30 7 0 23 7 36 17 23 16 25 15 43 -6 10 -13 15 -28 11 -35 -5 -7 -9 -5
-11 7 -4 19 -22 23 -22 5 0 -9 -3 -8 -10 2 -8 13 -12 12 -27 -4 -17 -18 -17
-18 0 -13 14 5 17 1 17 -23 0 -17 5 -30 11 -30 5 0 7 5 4 10 -4 6 35 10 109
10 116 0 152 -12 76 -24 -22 -3 -52 -3 -65 0 -15 4 -25 2 -25 -5 0 -6 -14 -11
-31 -11 -23 0 -30 -4 -25 -15 3 -8 -2 -19 -12 -24 -15 -9 -14 -10 6 -11 12 0
22 5 22 11 0 5 4 8 8 5 4 -2 37 2 72 9 36 8 76 14 90 14 l25 0 -22 -11 c-25
-12 -32 -34 -9 -25 67 26 93 29 123 13 17 -8 33 -13 36 -10 3 3 26 -6 52 -20
26 -13 54 -22 63 -19 10 4 13 2 8 -5 -3 -6 -2 -13 4 -17 5 -3 10 -12 10 -18 0
-8 -3 -8 -9 1 -7 11 -9 11 -14 -1 -3 -9 -26 -25 -51 -36 -25 -11 -46 -25 -46
-30 0 -17 27 -13 34 4 3 8 10 15 16 15 6 0 8 -4 5 -10 -3 -5 1 -10 9 -10 9 0
15 -3 15 -7 -4 -24 4 -22 32 5 20 19 29 37 26 46 -4 10 -1 16 9 16 8 0 12 5 9
10 -11 18 23 60 48 59 12 0 34 3 50 7 16 4 27 2 27 -4 0 -5 -16 -13 -35 -16
-19 -4 -35 -11 -35 -16 0 -6 -7 -10 -15 -10 -8 0 -15 -5 -15 -10 0 -14 50 -32
67 -26 8 3 11 1 8 -4 -3 -6 -1 -10 5 -10 6 0 4 -11 -6 -25 -13 -19 -20 -23
-30 -14 -9 7 -19 7 -32 0 -39 -21 -64 -71 -36 -71 8 0 14 6 14 14 0 11 11 14
40 12 22 -2 40 1 40 5 0 15 62 79 71 73 5 -3 9 0 9 6 0 6 12 8 33 4 17 -4 43
-7 56 -8 13 0 26 -6 28 -13 5 -13 -66 -65 -79 -57 -4 3 -8 1 -8 -4 0 -6 -9 -8
-20 -5 -23 6 -25 -4 -5 -31 11 -14 22 -17 45 -13 22 5 30 3 30 -8 0 -8 4 -15
8 -15 11 0 52 47 52 59 0 11 29 23 40 16 5 -3 7 -12 3 -20 -3 -8 -1 -15 5 -15
14 0 23 43 11 51 -17 10 2 17 56 20 56 3 98 -8 90 -22 -6 -8 17 -14 40 -9 6 1
7 -2 3 -6 -4 -4 -2 -14 5 -23 10 -14 10 -14 -5 -3 -9 7 -19 9 -22 4 -9 -15 5
-22 40 -22 34 0 52 14 34 25 -12 7 -4 25 11 25 5 0 9 -11 9 -25 0 -18 -7 -26
-25 -31 -39 -10 -30 -24 15 -24 23 0 40 5 40 11 0 7 12 10 29 7 17 -2 28 -1
26 2 -2 4 9 7 25 7 18 0 30 -6 30 -14 0 -7 5 -13 11 -13 6 0 9 9 6 20 -3 10
-2 19 2 18 18 -2 31 3 31 13 0 19 33 38 67 39 34 0 73 25 73 47 0 9 15 13 43
13 47 0 73 12 63 29 -4 6 3 12 16 15 13 3 37 8 53 11 17 3 43 9 58 12 16 3 31
12 34 19 3 8 15 14 28 14 12 0 34 9 48 20 14 11 40 20 59 20 18 0 53 5 77 11
30 6 47 6 56 -1 9 -8 19 -3 39 20 14 18 26 36 26 42 0 9 -27 39 -98 110 -91
91 -110 108 -120 108 -6 0 -13 8 -16 18 -3 9 -23 28 -43 42 -20 14 -55 42 -78
63 l-40 39 48 -6 c35 -4 47 -2 47 7 0 20 126 20 157 0 13 -9 26 -13 29 -10 10
10 -5 25 -31 31 -13 3 -55 29 -92 57 -37 28 -77 55 -88 59 -11 4 -32 18 -46
31 -28 26 -87 60 -191 110 -38 18 -68 36 -68 41 0 4 -5 8 -11 8 -5 0 -37 14
-71 30 -33 17 -66 30 -74 30 -7 0 -33 9 -56 19 -56 25 -148 51 -180 51 -14 0
-47 7 -74 15 -27 8 -98 19 -159 25 -60 6 -130 15 -155 20 -65 13 -382 20 -470
10z m194 -346 c3 -9 6 -48 6 -88 0 -48 5 -79 15 -92 8 -10 15 -30 15 -43 0
-14 7 -33 17 -43 9 -10 21 -26 27 -36 24 -42 72 -101 80 -102 5 0 18 -10 30
-22 30 -32 64 -53 137 -82 48 -20 65 -23 71 -14 6 10 8 10 8 0 0 -25 51 -34
113 -21 31 6 57 16 57 20 0 5 12 15 28 23 29 16 108 88 132 123 8 11 34 46 58
76 23 31 42 60 42 64 0 5 9 16 20 26 11 9 20 24 20 32 0 18 45 20 87 4 24 -9
30 -7 44 10 10 12 25 21 36 20 18 -1 67 -27 117 -63 22 -15 31 -17 51 -8 15 7
25 8 25 2 0 -6 -6 -10 -14 -10 -8 0 -18 -5 -22 -11 -7 -12 15 -60 34 -72 7 -5
10 -12 7 -18 -4 -5 -1 -9 4 -9 18 0 12 -35 -9 -61 -46 -54 -84 -89 -96 -89 -8
0 -14 -4 -14 -10 0 -5 -15 -17 -32 -27 -31 -17 -221 -87 -318 -118 -173 -55
-227 -68 -320 -76 -127 -12 -141 -14 -160 -22 -23 -9 -80 -3 -82 8 -2 6 7 11
20 13 12 2 22 8 22 13 0 5 6 9 14 9 7 0 19 6 25 14 16 19 1 28 -71 42 -45 8
-58 8 -58 -2 0 -9 -5 -10 -24 -1 -16 8 -20 14 -13 19 6 4 9 8 7 10 -32 20 -50
26 -55 18 -3 -6 -12 -10 -18 -10 -8 0 -7 4 2 9 27 17 -51 17 -109 0 -67 -21
-83 -15 -61 20 5 8 18 15 29 16 20 1 61 35 43 35 -6 0 -12 -1 -14 -2 -1 -2
-20 12 -42 29 -28 24 -41 29 -47 20 -6 -9 -8 -9 -8 0 0 9 -10 11 -30 7 -20 -5
-30 -3 -30 6 0 7 8 10 20 7 11 -3 23 -1 26 4 3 5 -2 9 -11 9 -9 0 -13 5 -10
10 9 14 -9 12 -24 -2 -7 -7 -11 -8 -10 -3 7 24 -14 53 -44 62 -21 6 -32 15
-32 27 0 10 -9 24 -19 31 -20 15 -38 42 -58 88 -12 26 -28 37 -28 19 0 -5 -6
-9 -12 -10 -7 0 -23 -4 -35 -7 -36 -11 -27 8 17 35 l40 26 -55 28 c-48 24 -70
45 -47 46 74 4 117 11 120 20 2 5 8 10 14 10 5 0 6 -9 3 -20 -4 -11 -2 -20 4
-20 6 0 11 4 11 9 0 5 12 11 28 14 27 5 88 26 147 51 48 20 119 43 136 45 9 0
20 -6 23 -15z m-344 -44 c0 -9 -37 -20 -44 -13 -2 3 -2 11 0 18 5 13 44 9 44
-5z m856 -12 c31 -35 74 -133 74 -167 0 -33 -19 -81 -32 -81 -21 0 -158 119
-158 138 0 17 53 113 68 121 24 14 26 14 48 -11z m-180 -11 c21 -25 43 -68 69
-132 15 -37 15 -44 -1 -92 -13 -38 -22 -51 -36 -50 -9 1 -19 6 -22 13 -2 6
-28 27 -58 46 -29 20 -62 46 -73 57 -18 21 -27 70 -15 81 3 3 21 26 40 53 38
53 65 60 96 24z m801 -82 c0 -8 -4 -12 -9 -9 -5 3 -6 10 -3 15 9 13 12 11 12
-6z m-1245 -350 c14 -18 8 -33 -10 -28 -10 2 -23 13 -30 23 -10 16 -8 19 11
17 12 0 25 -6 29 -12z m153 -104 c-6 -5 -21 -11 -35 -15 -21 -5 -20 -3 5 9 35
17 42 18 30 6z m45 -41 c0 -4 -7 -13 -15 -20 -12 -10 -19 -10 -27 -2 -8 8 -7
13 5 18 9 3 14 10 11 15 -3 5 2 6 10 3 9 -3 16 -10 16 -14z m1090 -60 c0 -5
-4 -10 -10 -10 -5 0 -10 5 -10 10 0 6 5 10 10 10 6 0 10 -4 10 -10z m-425 -49
c6 -11 -33 -26 -42 -17 -4 3 2 6 13 6 16 0 17 2 4 10 -13 8 -13 10 2 10 9 0
19 -4 23 -9z m325 -1 c0 -5 -4 -10 -10 -10 -5 0 -10 5 -10 10 0 6 5 10 10 10
6 0 10 -4 10 -10z m-210 -16 c0 -8 -4 -12 -10 -9 -5 3 -10 10 -10 16 0 5 5 9
10 9 6 0 10 -7 10 -16z m-793 -19 c-4 -8 -14 -15 -22 -15 -9 0 -13 5 -10 10 4
6 11 8 16 5 5 -4 9 2 9 11 0 10 3 15 6 11 4 -3 4 -13 1 -22z m601 -13 c15 12
16 11 4 -4 -11 -14 -17 -15 -32 -5 -15 9 -17 14 -7 26 10 12 13 11 15 -8 3
-19 6 -20 20 -9z m72 8 c0 -17 -22 -22 -36 -8 -12 12 -10 14 11 16 14 1 25 -2
25 -8z m188 -22 c-6 -18 -28 -21 -28 -4 0 9 7 16 16 16 9 0 14 -5 12 -12z
m-220 -7 c11 -7 10 -9 -3 -14 -9 -4 -14 -3 -10 2 3 5 -1 12 -7 14 -7 3 -8 6
-3 6 6 0 16 -3 23 -8z"/>
<path d="M6655 4270 c-180 -14 -309 -29 -390 -46 -44 -9 -98 -20 -120 -24 -69
-13 -168 -42 -190 -55 -11 -7 -37 -16 -57 -19 -21 -4 -38 -11 -38 -16 0 -6 -7
-10 -16 -10 -8 0 -36 -12 -62 -26 -26 -15 -78 -43 -117 -64 -127 -68 -140 -75
-147 -86 -4 -6 -40 -31 -80 -55 -40 -23 -86 -55 -103 -71 -16 -15 -42 -30 -57
-33 -28 -6 -45 -22 -35 -31 3 -3 18 1 34 9 35 19 153 20 153 1 0 -8 12 -11 40
-7 22 3 40 1 40 -4 0 -10 -40 -48 -57 -54 -24 -9 -153 -139 -153 -154 0 -27
58 -130 97 -172 6 -7 20 -23 30 -35 39 -49 126 -118 148 -118 33 0 56 -10 49
-22 -10 -16 17 -28 64 -28 23 0 42 -4 42 -10 0 -24 41 -50 80 -50 27 0 42 -5
49 -17 24 -42 30 -45 97 -49 38 -3 71 -9 72 -14 6 -18 90 -12 100 7 11 19 23
11 55 -39 10 -16 21 -28 26 -28 5 0 14 22 21 49 10 41 9 54 -4 80 -9 16 -16
31 -16 33 0 10 110 1 114 -9 3 -7 1 -15 -3 -18 -11 -6 -2 -45 10 -45 5 0 9 9
9 20 0 17 3 19 19 11 10 -6 22 -7 26 -3 3 4 5 0 3 -8 -2 -10 4 -14 17 -12 17
2 17 1 5 -8 -13 -8 -13 -11 -1 -19 9 -6 19 -4 28 5 8 8 24 14 36 14 18 0 19
-2 7 -10 -8 -5 -10 -10 -4 -10 5 0 15 5 20 10 7 7 19 8 37 1 20 -8 27 -7 31 6
5 11 2 14 -9 9 -9 -3 -18 1 -22 9 -3 10 -12 13 -24 10 -11 -4 -19 -2 -19 3 0
14 -76 36 -91 26 -11 -6 -12 -5 -2 7 11 14 13 19 13 38 0 5 18 9 40 9 22 0 44
3 49 7 5 3 12 1 16 -5 3 -5 12 -10 20 -10 12 0 81 -61 77 -67 -8 -11 1 -12 19
-2 17 8 23 8 29 -1 8 -13 30 -6 30 9 0 5 -12 16 -26 26 -19 12 -29 13 -38 5
-10 -8 -17 -4 -30 15 -10 14 -12 25 -6 25 6 0 8 4 5 10 -3 5 0 7 8 4 7 -2 26
0 42 6 27 10 27 11 10 30 -10 11 -25 20 -34 20 -9 1 -27 7 -41 15 -25 14 -25
14 13 15 25 0 36 -4 31 -11 -4 -7 0 -9 14 -5 24 8 66 -10 57 -24 -3 -4 1 -11
7 -13 10 -4 10 -7 1 -14 -16 -12 15 -40 38 -35 19 3 32 -31 17 -46 -7 -7 -3
-14 10 -21 17 -9 20 -8 18 7 -2 9 2 20 8 25 8 5 6 10 -4 17 -10 6 -11 10 -3
10 7 0 18 -9 25 -20 13 -20 38 -28 38 -11 0 12 -39 36 -71 44 -26 7 -40 30
-32 55 3 6 9 10 14 6 5 -3 9 0 9 6 0 6 5 8 10 5 6 -4 21 -1 33 7 12 7 47 22
78 32 51 17 58 17 93 2 21 -9 48 -16 60 -16 17 1 15 5 -14 21 l-35 20 60 -7
c33 -3 67 -10 76 -14 9 -5 25 -7 36 -4 12 3 24 1 27 -5 4 -6 15 -11 24 -11 12
1 10 5 -8 15 -14 8 -19 14 -12 15 6 0 12 8 12 18 0 12 -3 13 -8 5 -8 -12 -52
-7 -52 6 0 3 -27 7 -60 7 -56 1 -80 7 -69 19 8 7 215 9 227 1 8 -5 12 1 12 18
0 20 4 24 18 19 16 -5 16 -5 -1 13 -15 16 -19 17 -27 4 -7 -10 -10 -11 -10 -2
0 18 -18 14 -22 -5 -2 -12 -6 -14 -11 -7 -4 7 1 22 11 35 18 21 20 22 43 6 30
-22 60 -23 53 -2 -4 8 -14 15 -24 15 -25 0 -36 20 -19 32 10 6 5 8 -16 6 -16
-2 -33 -7 -36 -12 -4 -4 -9 -3 -13 3 -11 17 54 38 147 46 51 4 87 11 87 18 0
5 -3 7 -7 4 -10 -11 -33 13 -33 35 0 15 3 17 19 8 11 -5 27 -10 37 -10 14 0
14 3 4 15 -7 9 -19 14 -26 11 -7 -3 -15 2 -18 10 -8 22 -8 24 9 24 17 0 19 9
6 29 -5 8 -15 11 -23 8 -11 -4 -14 1 -10 18 2 12 -1 26 -7 29 -18 11 -13 24
12 28 12 2 37 -5 56 -15 23 -12 36 -15 41 -8 6 10 87 -14 100 -29 9 -11 40
-20 40 -11 0 4 -18 16 -40 27 -22 10 -40 21 -40 24 0 13 19 28 62 48 49 23 69
42 44 42 -9 0 -16 -4 -16 -10 0 -14 -20 -12 -54 5 -15 8 -35 15 -42 15 -19 0
-18 16 2 24 21 8 9 23 -25 31 -36 8 -54 28 -71 83 -14 44 -10 60 12 46 7 -5
22 -9 33 -10 11 -1 27 -3 35 -5 11 -3 16 5 18 28 3 26 -5 39 -43 77 -25 25
-52 46 -60 46 -8 0 -15 5 -15 10 0 6 -9 10 -20 10 -11 0 -20 4 -20 9 0 14
-225 85 -240 76 -4 -2 -31 2 -61 10 -66 18 -307 26 -444 15z m239 -347 c28 -9
65 -22 81 -29 69 -29 122 -46 154 -51 30 -5 33 -4 26 16 -8 26 17 38 48 23 18
-9 19 -11 5 -11 -10 -1 -18 -8 -18 -16 0 -10 17 -16 60 -21 63 -7 77 -19 35
-30 -14 -3 -25 -10 -25 -14 0 -5 -9 -12 -20 -15 -29 -9 -24 -32 10 -50 17 -9
30 -20 30 -25 0 -13 -4 -13 -47 5 -20 8 -37 14 -37 13 -12 -32 -47 -89 -69
-111 -15 -15 -26 -31 -23 -36 3 -4 -10 -15 -29 -24 -24 -11 -33 -21 -29 -32 5
-11 -1 -15 -20 -15 -14 0 -26 -4 -26 -10 0 -5 -7 -10 -16 -10 -9 0 -12 -5 -8
-12 5 -7 2 -9 -9 -5 -10 4 -32 -9 -62 -36 -44 -41 -49 -57 -17 -57 8 0 25 -11
38 -25 l23 -25 -27 1 c-36 1 -134 22 -150 33 -11 7 -12 4 -2 -13 6 -12 14 -19
18 -17 5 3 14 1 22 -5 13 -7 13 -9 0 -9 -32 0 -60 13 -53 24 4 7 1 6 -9 -1 -8
-7 -19 -9 -23 -5 -5 4 -5 1 -1 -6 6 -10 1 -11 -21 -6 -25 6 -26 5 -15 -9 11
-13 10 -16 -10 -22 -13 -5 -24 -3 -26 3 -2 8 -11 8 -28 1 -14 -5 -35 -9 -48
-9 -12 0 -31 -6 -41 -14 -19 -14 -19 -15 5 -35 14 -11 33 -20 43 -21 9 0 17
-7 17 -16 0 -13 -8 -15 -42 -11 -24 2 -54 7 -68 10 -14 3 -74 10 -135 16 -60
6 -130 17 -154 26 -24 8 -51 15 -60 15 -9 0 -28 6 -43 14 -15 8 -42 17 -60 21
-18 4 -37 11 -43 15 -5 4 -48 20 -95 35 -148 48 -193 71 -255 129 -32 31 -62
56 -67 56 -4 0 -7 3 -7 8 3 18 -2 33 -9 28 -4 -2 -8 4 -8 15 0 10 6 19 13 19
7 0 13 5 13 11 0 18 43 99 52 99 5 0 19 9 31 21 22 21 99 59 119 59 5 0 18
-10 27 -21 14 -18 21 -20 39 -10 11 6 34 11 51 11 23 0 34 -8 52 -37 13 -21
29 -42 36 -46 7 -4 13 -12 13 -17 0 -15 70 -110 81 -110 5 0 9 -6 9 -13 0 -13
96 -103 128 -121 10 -5 19 -12 22 -16 3 -3 24 -12 48 -20 36 -11 52 -11 90 -1
26 7 49 15 52 19 3 4 14 8 25 10 31 5 105 36 105 45 0 4 9 7 20 7 12 0 24 10
30 24 5 13 19 27 32 31 28 9 77 55 78 73 0 6 4 12 8 12 13 0 70 128 82 183 6
27 8 64 4 82 -7 37 2 75 18 75 6 0 33 -8 62 -17z m626 -93 c0 -5 -4 -10 -9
-10 -6 0 -13 5 -16 10 -3 6 1 10 9 10 9 0 16 -4 16 -10z m-1385 -34 c20 -20
26 -22 36 -10 8 9 33 14 78 14 l66 -1 33 -47 c17 -27 32 -53 32 -59 0 -6 7
-24 15 -39 24 -47 17 -174 -11 -174 -7 0 -28 9 -46 20 -18 11 -40 20 -48 20
-8 0 -29 16 -45 35 -36 41 -45 43 -45 10 0 -35 -25 -42 -69 -19 -43 22 -69 48
-111 108 -24 35 -30 55 -30 95 0 48 1 51 33 60 56 16 86 12 112 -13z m325
-236 c0 -5 -5 -10 -11 -10 -5 0 -7 5 -4 10 3 6 8 10 11 10 2 0 4 -4 4 -10z
m566 -92 c4 -6 3 -8 -4 -4 -5 3 -12 0 -15 -6 -2 -7 -8 -9 -13 -5 -5 4 -2 12 6
17 19 12 17 12 26 -2z m-66 -47 c0 -25 -3 -28 -25 -24 -23 5 -23 6 -8 29 21
32 33 30 33 -5z m-182 -144 c7 -8 7 -18 2 -27 -8 -12 -14 -10 -35 13 l-26 27
24 0 c14 0 29 -6 35 -13z m-1118 -57 c0 -5 -4 -10 -10 -10 -5 0 -10 5 -10 10
0 6 5 10 10 10 6 0 10 -4 10 -10z m100 -50 c0 -5 -4 -10 -10 -10 -5 0 -10 5
-10 10 0 6 5 10 10 10 6 0 10 -4 10 -10z m210 -16 c0 -8 -4 -12 -10 -9 -5 3
-10 13 -10 21 0 8 5 12 10 9 6 -3 10 -13 10 -21z m130 22 c0 -2 -7 -6 -15 -10
-8 -3 -15 -1 -15 4 0 6 7 10 15 10 8 0 15 -2 15 -4z m75 -25 c3 -5 1 -12 -5
-16 -5 -3 -10 1 -10 9 0 18 6 21 15 7z m-265 -41 c0 -5 -9 -10 -20 -10 -11 0
-20 5 -20 10 0 6 9 10 20 10 11 0 20 -4 20 -10z m198 -2 c14 -14 16 -28 2 -28
-5 0 -14 9 -20 20 -12 22 -1 27 18 8z m66 -7 c-10 -10 -21 -16 -24 -14 -3 3 4
11 14 19 28 20 33 17 10 -5z m200 3 c3 -8 2 -12 -4 -9 -6 3 -10 10 -10 16 0
14 7 11 14 -7z m-374 -14 c0 -5 -5 -10 -11 -10 -5 0 -7 5 -4 10 3 6 8 10 11
10 2 0 4 -4 4 -10z"/>
<path d="M4288 3220 c2 -17 8 -33 13 -36 13 -7 11 -34 -2 -34 -5 0 -7 5 -4 10
3 6 -3 10 -15 10 -12 0 -18 5 -15 10 9 14 -98 13 -146 -2 -22 -6 -39 -14 -39
-18 0 -4 -6 -7 -12 -8 -53 -3 -129 -15 -158 -23 -19 -6 -64 -13 -100 -17 -41
-5 -64 -12 -63 -20 2 -6 -4 -9 -12 -6 -10 4 -16 -3 -20 -23 -4 -15 -10 -39
-15 -53 -5 -14 -9 -48 -9 -77 -1 -28 -11 -80 -22 -115 -11 -35 -23 -100 -26
-145 -3 -46 -10 -83 -14 -83 -5 0 -9 -14 -9 -31 0 -54 -29 -69 -131 -69 -59 0
-92 4 -101 13 -7 7 -33 24 -58 38 -25 13 -47 27 -50 31 -3 4 -42 13 -85 19
-44 6 -85 16 -92 21 -15 12 -75 7 -85 -7 -5 -6 -8 -5 -8 3 0 35 -55 -15 -76
-70 -3 -10 -11 -18 -16 -18 -23 0 -47 -46 -48 -89 0 -31 -7 -54 -25 -76 -13
-18 -21 -36 -17 -40 4 -5 1 -5 -5 -1 -11 6 -54 -12 -158 -67 -11 -6 -27 -24
-36 -41 -8 -16 -29 -37 -47 -45 -17 -9 -32 -20 -32 -24 0 -5 5 -5 11 -1 19 12
-24 -55 -51 -79 -13 -12 -19 -15 -12 -6 7 9 9 24 6 34 -4 9 -10 12 -13 7 -3
-5 -44 -13 -91 -18 -87 -9 -93 -8 -227 33 -40 13 -57 14 -76 6 -19 -9 -25 -8
-35 7 -14 24 -49 22 -56 -3 -4 -17 -13 -18 -103 -14 -54 2 -142 14 -196 26
-55 11 -102 19 -107 16 -4 -2 -26 5 -50 16 -23 11 -50 19 -59 16 -9 -2 -22 2
-29 10 -9 9 -45 13 -132 13 -108 0 -119 -2 -113 -17 11 -29 35 -51 49 -46 8 3
14 0 14 -6 0 -6 7 -11 15 -11 8 0 15 -6 15 -13 0 -7 10 -17 22 -22 12 -6 23
-15 25 -21 5 -14 -125 -26 -149 -13 -9 5 -57 11 -106 12 -48 2 -93 7 -100 11
-6 3 -51 5 -100 4 -56 -2 -94 1 -103 9 -8 6 -41 13 -74 16 -33 2 -88 7 -123
11 -34 3 -62 2 -62 -3 0 -4 -12 -13 -27 -20 -29 -13 -88 -77 -88 -95 0 -25
-40 -18 -65 12 -23 28 -90 70 -90 57 0 -4 -7 1 -16 9 -10 11 -34 16 -67 16
-29 0 -82 3 -119 7 l-68 6 0 -1052 0 -1051 4000 0 4000 0 0 1388 c-1 1262 -2
1385 -16 1367 -15 -19 -16 -16 -12 43 3 46 1 62 -9 62 -7 0 -15 -11 -19 -25
-3 -14 -11 -25 -16 -25 -18 0 -33 -25 -33 -54 0 -24 -5 -31 -30 -38 -34 -9
-105 -1 -105 12 0 5 -16 12 -35 16 -19 3 -35 10 -35 15 0 5 -9 9 -20 9 -12 0
-50 7 -86 16 -36 9 -67 15 -69 12 -10 -10 9 -48 26 -53 10 -4 19 -13 19 -20 0
-8 6 -18 13 -22 14 -9 35 -41 43 -65 4 -10 10 -18 15 -18 5 0 9 -5 9 -11 0
-11 -133 -7 -267 8 -51 5 -53 4 -53 -19 0 -13 -12 -38 -27 -57 l-28 -32 -105
15 c-184 26 -230 29 -230 16 0 -10 -29 -11 -125 -5 -69 4 -125 5 -125 2 0 -19
52 -153 60 -155 5 -2 10 -8 10 -13 0 -11 -89 -11 -150 1 -125 23 -166 32 -174
41 -6 5 -49 9 -97 9 -48 0 -90 4 -93 9 -3 5 -34 12 -68 15 -60 6 -132 24 -208
51 -19 7 -55 19 -80 26 -52 16 -200 97 -200 110 0 5 -8 9 -18 9 -11 0 -27 9
-37 20 -10 11 -28 20 -40 20 -12 0 -34 9 -48 20 -14 11 -28 20 -32 20 -4 0 -5
-28 -2 -62 6 -66 -10 -108 -42 -108 -13 0 -13 -2 -2 -9 15 -10 7 -31 -12 -31
-9 0 -8 3 1 8 17 11 -29 33 -57 27 -14 -2 -18 1 -14 11 4 10 -2 14 -21 14 -14
0 -26 5 -26 10 0 7 -45 10 -124 9 -103 -1 -124 -3 -119 -15 3 -8 14 -14 24
-14 10 0 19 -4 19 -8 0 -19 -14 -20 -48 -1 -20 10 -46 17 -57 14 -11 -3 -14
-2 -7 1 14 7 -43 50 -104 80 -17 8 -63 47 -102 85 -40 39 -76 68 -81 65 -5 -3
-7 2 -4 12 3 13 -15 39 -56 83 -33 35 -70 78 -82 94 -13 17 -30 35 -39 41 -8
7 -46 43 -85 81 -38 39 -89 82 -112 98 -24 15 -43 32 -43 36 0 5 -6 9 -13 9
-9 0 -12 -10 -9 -30z m-263 -90 c-3 -5 -12 -10 -18 -10 -7 0 -6 4 3 10 19 12
23 12 15 0z m-279 -75 c13 -13 13 -15 1 -15 -8 0 -17 7 -21 15 -3 8 -3 15 0
15 3 0 12 -7 20 -15z m4207 -422 c-7 -86 -13 -94 -13 -16 l0 60 -47 10 -48 10
56 2 57 1 -5 -67z m-3033 -19 c0 -2 -9 0 -20 6 -11 6 -20 13 -20 16 0 2 9 0
20 -6 11 -6 20 -13 20 -16z m230 -135 c0 -5 14 -15 30 -20 33 -12 40 -29 12
-29 -10 0 -28 11 -40 25 -24 28 -27 35 -12 35 6 0 10 -5 10 -11z m-2343 -211
c-3 -8 -6 -5 -6 6 -1 11 2 17 5 13 3 -3 4 -12 1 -19z m-20 -14 c-3 -3 -12 -4
-19 -1 -8 3 -5 6 6 6 11 1 17 -2 13 -5z m-6 -41 c-12 -20 -14 -14 -5 12 4 9 9
14 11 11 3 -2 0 -13 -6 -23z m-63 -28 c-3 -3 -9 2 -12 12 -6 14 -5 15 5 6 7
-7 10 -15 7 -18z m-674 -71 c4 -10 2 -13 -6 -8 -8 5 -9 2 -4 -11 5 -15 4 -16
-9 -5 -12 10 -13 16 -4 26 14 18 16 17 23 -2z m384 -131 c-10 -2 -28 -2 -40 0
-13 2 -5 4 17 4 22 1 32 -1 23 -4z m-1631 -59 c-3 -3 -12 -4 -19 -1 -8 3 -5 6
6 6 11 1 17 -2 13 -5z m623 -34 c0 -5 -4 -10 -10 -10 -5 0 -10 5 -10 10 0 6 5
10 10 10 6 0 10 -4 10 -10z m97 -16 c-3 -3 -12 -4 -19 -1 -8 3 -5 6 6 6 11 1
17 -2 13 -5z m-1410 -40 c-3 -3 -12 -4 -19 -1 -8 3 -5 6 6 6 11 1 17 -2 13 -5z
m443 -94 c0 -5 -4 -10 -10 -10 -5 0 -10 5 -10 10 0 6 5 10 10 10 6 0 10 -4 10
-10z m-500 -330 c0 -5 -4 -10 -10 -10 -5 0 -10 5 -10 10 0 6 5 10 10 10 6 0
10 -4 10 -10z m5600 -105 c0 -8 -4 -15 -10 -15 -5 0 -10 7 -10 15 0 8 5 15 10
15 6 0 10 -7 10 -15z m180 -295 c0 -5 -4 -10 -10 -10 -5 0 -10 5 -10 10 0 6 5
10 10 10 6 0 10 -4 10 -10z m308 -498 c2 -7 -3 -12 -12 -12 -9 0 -16 7 -16 16
0 17 22 14 28 -4z"/>
<path d="M968 3213 c-19 -5 -25 -23 -9 -23 17 0 41 12 41 21 0 9 -4 10 -32 2z"/>
<path d="M7000 3209 c0 -5 4 -8 9 -5 5 4 11 0 14 -6 2 -7 8 -9 13 -5 5 4 2 12
-6 17 -20 13 -30 12 -30 -1z"/>
<path d="M1140 3166 c-8 -10 -18 -12 -33 -7 -17 7 -29 2 -52 -21 l-30 -30 30
7 c17 3 38 14 48 22 9 9 17 12 17 8 0 -5 5 -4 12 3 7 7 20 12 30 12 10 0 18 5
18 10 0 15 -26 12 -40 -4z"/>
<path d="M6824 3166 c10 -8 23 -13 29 -9 5 3 12 1 16 -3 8 -13 90 -48 96 -42
10 9 -50 53 -75 55 -14 1 -38 4 -55 8 -28 6 -29 5 -11 -9z"/>
<path d="M7600 3160 c0 -5 23 -10 50 -10 28 0 50 5 50 10 0 6 -22 10 -50 10
-27 0 -50 -4 -50 -10z"/>
<path d="M1443 3083 c-9 -29 -7 -63 5 -63 4 0 14 4 22 10 12 8 12 10 -3 15
-13 6 -14 11 -6 27 7 13 7 24 1 30 -6 6 -13 -1 -19 -19z"/>
<path d="M1776 3075 c4 -15 1 -32 -6 -40 -7 -8 -8 -15 -3 -15 6 0 8 -11 6 -24
-6 -31 26 -45 44 -19 7 10 17 24 23 31 8 9 9 17 1 26 -7 9 -7 16 1 24 9 9 8
12 -4 12 -8 0 -21 7 -28 15 -21 25 -41 19 -34 -10z m34 1 c0 -3 -4 -8 -10 -11
-5 -3 -10 -1 -10 4 0 6 5 11 10 11 6 0 10 -2 10 -4z m13 -49 c4 3 7 1 7 -5 0
-7 -4 -12 -8 -12 -12 0 -32 22 -32 35 0 5 7 2 14 -7 7 -10 16 -15 19 -11z m-8
-37 c-3 -5 -12 -10 -18 -10 -7 0 -6 4 3 10 19 12 23 12 15 0z"/>
<path d="M6960 3096 c0 -2 7 -9 15 -16 9 -7 15 -8 15 -2 0 5 -7 12 -15 16 -8
3 -15 4 -15 2z"/>
<path d="M7470 3080 c0 -5 5 -10 10 -10 6 0 10 5 10 10 0 6 -4 10 -10 10 -5 0
-10 -4 -10 -10z"/>
<path d="M6685 3061 c-3 -5 -1 -12 4 -15 5 -3 11 1 15 9 6 16 -9 21 -19 6z"/>
<path d="M7360 2985 c0 -9 42 -47 47 -42 2 3 -5 15 -16 26 -21 21 -31 26 -31
16z"/>
</g>
</svg>
